<svg width="28" height="24" viewBox="0 0 28 24" fill="none" xmlns="http://www.w3.org/2000/svg">
<path d="M1 5.17578L3.08 5.5316L4.04301 16.8715C4.12001 17.7976 4.90301 18.5082 5.84301 18.5053H16.752C17.649 18.5072 18.41 17.8549 18.537 16.9772L19.486 10.4953C19.592 9.77083 19.083 9.09872 18.351 8.99395C18.287 8.98505 3.414 8.98011 3.414 8.98011" stroke="#363853" stroke-width="1.5" stroke-linecap="round" stroke-linejoin="round"/>
<path d="M12.375 12.6334H15.1479" stroke="#363853" stroke-width="1.5" stroke-linecap="round" stroke-linejoin="round"/>
<path fill-rule="evenodd" clip-rule="evenodd" d="M5.4043 21.9316C5.70527 21.9316 5.94824 22.1729 5.94824 22.4696C5.94824 22.7673 5.70527 23.0085 5.4043 23.0085C5.10333 23.0085 4.86035 22.7673 4.86035 22.4696C4.86035 22.1729 5.10333 21.9316 5.4043 21.9316Z" fill="#363853" stroke="#363853" stroke-width="1.5" stroke-linecap="round" stroke-linejoin="round"/>
<path fill-rule="evenodd" clip-rule="evenodd" d="M16.6846 21.9316C16.9856 21.9316 17.2296 22.1729 17.2296 22.4696C17.2296 22.7673 16.9856 23.0085 16.6846 23.0085C16.3836 23.0085 16.1406 22.7673 16.1406 22.4696C16.1406 22.1729 16.3836 21.9316 16.6846 21.9316Z" fill="#363853" stroke="#363853" stroke-width="1.5" stroke-linecap="round" stroke-linejoin="round"/>
<circle cx="21" cy="7" r="7" fill="#FF6838"/>
<path d="M22.01 11C21.9433 11 21.8867 10.98 21.84 10.94C21.8 10.8933 21.78 10.8367 21.78 10.77V9.33H18.54C18.4733 9.33 18.4167 9.31 18.37 9.27C18.33 9.22333 18.31 9.16667 18.31 9.1V8.7C18.31 8.6 18.3467 8.5 18.42 8.4L21.42 4.17C21.4533 4.11667 21.5033 4.07667 21.57 4.05C21.6367 4.01667 21.71 4 21.79 4H22.51C22.5767 4 22.63 4.02333 22.67 4.07C22.7167 4.11 22.74 4.16333 22.74 4.23V8.46H23.64C23.7067 8.46 23.7633 8.48333 23.81 8.53C23.8567 8.57 23.88 8.62333 23.88 8.69V9.1C23.88 9.16667 23.8567 9.22333 23.81 9.27C23.77 9.31 23.7167 9.33 23.65 9.33H22.74V10.77C22.74 10.8367 22.7167 10.8933 22.67 10.94C22.63 10.98 22.5767 11 22.51 11H22.01ZM21.79 8.48V5.05L19.38 8.48H21.79Z" fill="white"/>
</svg>
